<svg width="50" height="50" viewBox="0 0 50 50" fill="none" xmlns="http://www.w3.org/2000/svg">
<path d="M13.7304 39.5833C12.5369 39.5833 11.5695 38.6696 11.5695 37.5425C11.5695 36.4154 12.5369 35.5017 13.7304 35.5017H30.1227L11.6624 18.0669C10.8184 17.27 10.8184 15.9781 11.6624 15.1812C12.5063 14.384 13.8741 14.384 14.7179 15.1812L33.1783 32.6158V17.1343C33.1783 16.0071 34.1457 15.0934 35.3391 15.0934C36.5325 15.0934 37.5 16.0071 37.5 17.1343V37.5425C37.5 37.7052 37.479 37.8632 37.4409 38.0149C37.4304 38.0568 37.4205 38.099 37.4071 38.1404C37.3749 38.2399 37.3319 38.335 37.2848 38.4274C37.2434 38.5086 37.1968 38.5881 37.1434 38.6645C36.9475 38.945 36.6809 39.1775 36.3668 39.3382C36.3371 39.3534 36.3063 39.3663 36.2761 39.38C36.1783 39.4246 36.0775 39.4652 35.9722 39.4956C35.9284 39.5083 35.8837 39.5176 35.8393 39.5275C35.8147 39.533 35.7902 39.5388 35.7654 39.5435L35.7527 39.5455L35.5607 39.5734C35.4879 39.5804 35.4139 39.5833 35.3391 39.5833H13.7304Z" fill="white"/>
</svg>
