<svg xmlns="http://www.w3.org/2000/svg" viewBox="0 0 45 35"  fill="none"><path fill="#2837a3" d="m41.03 15.21-6.324-5.478V3.404c0-1.144-1.07-2.071-2.393-2.071-1.32 0-2.39.927-2.39 2.071v2.184l-4.71-4.078c-2.328-2.016-6.376-2.012-8.7.003L.7 15.21c-.933.81-.933 2.121 0 2.93.934.81 2.45.81 3.384 0L19.896 4.443c.515-.444 1.424-.444 1.936-.001l15.815 13.697c.469.405 1.08.607 1.691.607.613 0 1.225-.202 1.693-.607.934-.809.934-2.12 0-2.93"/><path fill="#2837a3" d="M21.696 8.375c-.46-.398-1.203-.398-1.661 0L6.125 20.418a.96.96 0 0 0-.344.721v8.784c0 2.061 1.93 3.733 4.31 3.733h6.886v-9.237h7.775v9.237h6.887c2.38 0 4.31-1.672 4.31-3.733V21.14c0-.27-.124-.53-.344-.72z"/></svg>