<svg xmlns="http://www.w3.org/2000/svg" viewBox="0 0 40 30" fill="none"><path fill="#2837a3" d="M19.802 20.468q0-.303.03-.612l-.489-.244c-1.148-.577-1.544-1.856-.88-2.852l1.438-2.156c.429-.644 1.23-1.045 2.09-1.045.42 0 .838.097 1.204.28l.488.244q.582-.345 1.223-.61v-.49c0-1.152 1.082-2.088 2.412-2.088h2.875c.496 0 .957.13 1.34.353v-2.38c0-1.93-1.807-3.495-4.036-3.495h-5.41v-1.57C22.086 1.707 20.115 0 17.693 0H13.84C11.42 0 9.448 1.706 9.448 3.804v1.57H4.035C1.807 5.373 0 6.937 0 8.867v11.67c0 1.93 1.807 3.495 4.035 3.495h14.354c-.54-.973-.14-2.159.957-2.708l.486-.244q-.03-.31-.03-.613M12.637 3.804c0-.575.54-1.042 1.203-1.042h3.854c.663 0 1.204.467 1.204 1.042v1.57h-6.261z"/><path fill="#2837a3" d="m37.527 22.281-1.226-.613c.083-.39.131-.79.131-1.2s-.048-.81-.13-1.2l1.225-.612c.262-.13.451-.345.53-.597a.87.87 0 0 0-.114-.747l-1.437-2.156a1.13 1.13 0 0 0-.69-.459 1.273 1.273 0 0 0-.862.099l-1.225.612a8 8 0 0 0-2.4-1.199v-1.226c0-.544-.508-.984-1.136-.984h-2.875c-.628 0-1.136.44-1.136.984v1.226c-.887.274-1.7.68-2.4 1.2l-1.225-.614a1.3 1.3 0 0 0-.566-.131c-.393 0-.774.176-.986.492l-1.437 2.156c-.314.47-.127 1.072.416 1.344l1.226.613c-.083.39-.133.79-.133 1.199s.05.81.133 1.2l-1.226.614c-.543.271-.73.873-.416 1.343l1.437 2.157c.21.315.593.491.986.491.192 0 .387-.042.566-.131l1.226-.613a8 8 0 0 0 2.399 1.197v1.227c0 .544.508.984 1.136.984h2.875c.627 0 1.136-.44 1.136-.984v-1.227a8 8 0 0 0 2.399-1.198l1.226.613a1.28 1.28 0 0 0 .862.098 1.13 1.13 0 0 0 .69-.458l1.437-2.156a.87.87 0 0 0 .114-.747 1.02 1.02 0 0 0-.53-.597m-8.771 2.455c-2.719 0-4.928-1.915-4.928-4.268s2.21-4.267 4.928-4.267c2.716 0 4.926 1.914 4.926 4.267s-2.21 4.268-4.927 4.268"/><path fill="#2837a3" d="M28.756 17.306c-2.014 0-3.653 1.419-3.653 3.162 0 1.744 1.64 3.163 3.653 3.163s3.65-1.419 3.65-3.163-1.638-3.162-3.65-3.162"/></svg>