<svg xmlns="http://www.w3.org/2000/svg" viewBox="0 0 40 40" fill="none"><path fill="#2837a3" d="M7.302 34.596c-2.325 0-4.22-1.64-4.22-3.655V14.984h29.966v8.508c1.106.232 2.142.614 3.083 1.12l-.04-17.672c-.003-1.21-1.137-2.19-2.535-2.19v-.9C33.555 1.726 31.56 0 29.05 0c-2.45 0-4.444 1.726-4.444 3.85v.9H22.54v-.9c0-2.124-1.995-3.85-4.505-3.85-2.45 0-4.445 1.726-4.445 3.85v.9h-2.065v-.9C11.526 1.726 9.53 0 7.02 0c-2.45 0-4.443 1.726-4.443 3.85v.9C1.179 4.75.045 5.73.043 6.94l-.043 24c0 3.488 3.276 6.325 7.302 6.325h14.189a8.6 8.6 0 0 1-1.288-2.67zM27.687 3.85c0-.65.61-1.18 1.422-1.18.751 0 1.362.53 1.362 1.18v4.533c0 .651-.61 1.18-1.362 1.18h-.059c-.752 0-1.363-.529-1.363-1.18zm-11.015 0c0-.65.613-1.18 1.422-1.18.752 0 1.364.53 1.364 1.18v4.533c0 .651-.612 1.18-1.364 1.18h-.06c-.75 0-1.362-.529-1.362-1.18zm-11.013 0c0-.65.61-1.18 1.42-1.18.754 0 1.363.53 1.363 1.18v4.533c0 .651-.61 1.18-1.362 1.18H7.02c-.751 0-1.362-.529-1.362-1.18z"/><path fill="#2837a3" d="M30.535 25.89c-4.174 0-7.557 2.932-7.557 6.547 0 3.616 3.383 6.547 7.557 6.547 4.177 0 7.56-2.931 7.56-6.547s-3.383-6.546-7.56-6.546m2.941 8.123a.8.8 0 0 1-.656.316.85.85 0 0 1-.404-.1l-2.285-1.225c-.228-.121-.366-.336-.366-.567v-3.869c0-.369.346-.668.77-.668.428 0 .772.3.772.668v3.497l1.92 1.03c.36.193.473.604.249.918"/></svg>