<svg xmlns="http://www.w3.org/2000/svg" viewBox="0 0 40 35" fill="none"><path fill="#2837a3" d="M13.905 20.728c.138.351.218.662.218.914 0 2.033-2.3 3.68-5.135 3.68s-5.135-1.647-5.135-3.68c0-.252.08-.563.217-.914C1.681 21.593 0 23.636 0 26.019v5.1c0 1.084 1.014 1.962 2.264 1.962H15.71c1.252 0 2.264-.878 2.264-1.962v-5.1c0-2.383-1.678-4.426-4.068-5.291"/><path fill="#2837a3" d="M4.128 20.596c1.035 1.599 2.803 2.841 4.86 2.841 2.056 0 3.825-1.242 4.86-2.84q.23-.365.41-.749c.358-.751.561-1.545.561-2.306 0-2.786-2.615-5.052-5.831-5.052s-5.834 2.267-5.834 5.052c0 .76.205 1.554.563 2.306q.18.384.411.748m4.86-6.236c2.026 0 3.675 1.428 3.675 3.182 0 1.812-1.696 4.026-3.675 4.026-1.98 0-3.675-2.214-3.675-4.026 0-1.754 1.648-3.182 3.675-3.182M34.027 20.728c.138.351.218.662.218.914 0 2.033-2.3 3.68-5.135 3.68s-5.135-1.647-5.135-3.68c0-.252.08-.563.218-.914-2.39.865-4.07 2.908-4.07 5.291v5.1c0 1.084 1.014 1.962 2.264 1.962H35.83c1.252 0 2.264-.878 2.264-1.962v-5.1c0-2.383-1.678-4.426-4.068-5.291"/><path fill="#2837a3" d="M23.276 17.542c0 .76.205 1.554.564 2.306q.179.384.41.748c1.035 1.599 2.803 2.841 4.86 2.841 2.056 0 3.825-1.242 4.86-2.84q.231-.365.41-.749c.358-.751.562-1.545.562-2.306 0-2.786-2.616-5.052-5.832-5.052s-5.834 2.267-5.834 5.052m5.834-3.182c2.027 0 3.675 1.428 3.675 3.182 0 1.812-1.696 4.026-3.675 4.026s-3.675-2.214-3.675-4.026c0-1.754 1.649-3.182 3.675-3.182M21.768 13.942v-1.3c.877-.436 1.478-1.247 1.478-2.184V9.6c1.365-1.045 2.142-2.526 2.142-4.11 0-3.234-3.247-5.822-7.064-5.455-2.879.277-5.218 2.285-5.566 4.774-.253 1.822.526 3.59 2.094 4.791v.858c0 .937.6 1.748 1.478 2.185v1.299c0 .669.626 1.211 1.397 1.211h.404v.252c0 .435.408.787.909.787h.018c.5 0 .909-.352.909-.787v-.252h.403c.772 0 1.398-.542 1.398-1.211m-4.82-7.077h.246v4.848c-.573-.2-.982-.686-.982-1.255V9.042l-.258-.176c-1.368-.942-2.059-2.406-1.849-3.915.274-1.954 2.112-3.53 4.369-3.748q.29-.027.574-.028c2.748 0 4.982 1.935 4.982 4.314 0 1.32-.686 2.55-1.886 3.377l-.258.176v1.416c0 .57-.406 1.056-.982 1.255V6.865h.245c.554 0 1.005-.389 1.005-.87v-.459c0-.48-.451-.87-1.005-.87h-4.2c-.554 0-1.005.39-1.005.87v.46c0 .48.45.869 1.005.869m3.274 4.946h-2.347V6.865h2.348z"/></svg>